<?xml version="1.0" encoding="utf-8"?><svg viewBox="0 0 827 1048" xmlns="http://www.w3.org/2000/svg" xmlns:xlink="http://www.w3.org/1999/xlink"><style>:root>svg{display:none}:root>svg:target{display:block}</style><svg viewBox="0 0 208 44" id="foote-icon" xmlns="http://www.w3.org/2000/svg"><path d="M13.547 12.25V21.848c-.012 1.172-.024 1.816-.035 1.933-.164 1.078-.551 2.051-1.184 2.907a6.732 6.732 0 0 1-2.39 2.039c-.961.515-2.028.761-3.176.761-1.254 0-2.39-.293-3.41-.867a6.65 6.65 0 0 1-2.426-2.344c-.598-.972-.903-2.062-.926-3.28V12.25h2.344v1.676c-.012 1.125-.012 2.402-.024 3.855v3.88c0 1.136.012 1.78.012 1.921.152 1.031.645 1.887 1.488 2.566.844.668 1.817 1.008 2.942 1.008 1.172 0 2.18-.375 3.023-1.113.844-.738 1.313-1.664 1.43-2.777V12.25h2.332ZM33.41 22.797c1.102.89 1.946 1.933 2.531 3.117.575 1.195.88 2.402.88 3.621H34.5c0-.984-.281-1.969-.832-2.941-.55-.973-1.348-1.782-2.379-2.45a4.185 4.185 0 0 0-1.605-.714 11.74 11.74 0 0 0-2.262-.07c-.387.011-.809.023-1.266.023l-.023 6.152h-2.32l.011-14.074c0-1.078.223-1.875.68-2.379.445-.516 1.195-.773 2.226-.773h1.77c.574-.012 1.066-.012 1.453-.012h.586c1.219.012 2.285.223 3.211.644a5.02 5.02 0 0 1 2.203 1.887c.527.844.797 1.887.797 3.14 0 .856-.14 1.595-.41 2.216a4.44 4.44 0 0 1-1.172 1.593 5.872 5.872 0 0 1-1.758 1.02Zm-2.812-1.735a7.985 7.985 0 0 0 1.957-.351 2.829 2.829 0 0 0 1.36-.926c.327-.433.503-1.031.503-1.816 0-.75-.14-1.348-.398-1.817a2.58 2.58 0 0 0-1.137-1.043c-.492-.246-1.078-.398-1.746-.48h-.692c-.41 0-.89 0-1.43-.012H26.93a.898.898 0 0 0-.528.281.79.79 0 0 0-.21.551v2.766c0 .726-.012 1.37-.012 1.933s0 .868.011.915h4.407Zm18.937 6.165c.024 0 .047 0 .059-.012V29.5H38.93V15.684c0-.938.34-1.746 1.02-2.414.69-.668 1.5-1.008 2.448-1.008h6.833v2.308c-.036 0-.399 0-1.079.012h-4.711c-.691 0-1.043.012-1.043.012-.304 0-.574.105-.796.316-.211.211-.329.469-.329.774v3.996h7.371v2.25l-7.37.011-.047 5.227 8.308.059Zm9-14.977c1.254 0 2.39.27 3.41.809 1.02.527 1.828 1.218 2.426 2.05.598.844.902 1.735.914 2.696V29.5h-2.273V26.852c-.024-1.243-.352-2.18-1.008-2.79-.645-.609-1.43-1.007-2.356-1.195a12.144 12.144 0 0 0-2.613-.27 64.11 64.11 0 0 0-2.144 0h-.82v1.301c0 .727 0 1.512-.012 2.368V29.5h-2.332V18.004c0-.996.328-1.934.984-2.8.645-.88 1.5-1.595 2.531-2.134 1.043-.539 2.133-.82 3.293-.82ZM63 21.871c0-.914 0-1.734-.012-2.426a32.126 32.126 0 0 0-.035-1.277c-.152-1.043-.644-1.898-1.476-2.566-.844-.668-1.829-1.008-2.942-1.008-1.172 0-2.191.363-3.023 1.113-.844.738-1.325 1.664-1.43 2.777-.012.082-.012.68-.012 1.805h3.774c1.195 0 2.215.105 3.058.34A4.285 4.285 0 0 1 63 21.87Zm8.32 5.297h5.79v2.32h-5.79c-1.09 0-2.015-.304-2.777-.914-.75-.61-1.125-1.347-1.125-2.238l-.012-14.086h2.32l.012 14.086c0 .164.14.352.434.539.293.2.68.293 1.148.293Zm25.453-6.48c.973.21 1.77.668 2.403 1.37.62.692.984 1.454 1.078 2.25.058.528-.012 1.079-.199 1.688-.188.598-.516 1.16-.985 1.688-.468.527-1.148.96-2.027 1.3-.879.34-2.05.504-3.492.504l-6.153.012.012-10.969v-2.754c0-.949.328-1.746 1.008-2.414a3.381 3.381 0 0 1 2.45-1.008h2.66c.855 0 1.628.165 2.32.493.68.316 1.207.738 1.558 1.254a6.29 6.29 0 0 1 .832 1.687c.2.61.235 1.395.106 2.344-.13.96-.656 1.816-1.57 2.555Zm-2.472 6.527a9.858 9.858 0 0 0 1.922-.27c.55-.152.984-.433 1.3-.843.305-.399.458-.997.446-1.793-.024-.61-.305-1.102-.856-1.465-.55-.375-1.3-.575-2.261-.586-.176-.012-.528-.012-1.055-.012h-4.054l-.036 5.004h2.145c.562-.012 1.09-.012 1.558-.012.469-.011.774-.011.89-.023Zm-1.57-7.254c1.23-.023 2.132-.293 2.695-.797.574-.516.843-1.195.82-2.039-.023-.89-.375-1.523-1.043-1.898-.68-.375-1.629-.563-2.86-.551-.984.011-1.476.011-1.476.011-.305 0-.574.106-.797.317a1.02 1.02 0 0 0-.328.773v4.16s.2 0 .61.012h1.03c.294.012.528.012.716.012h.633Zm19.289 2.836c1.101.89 1.945 1.933 2.531 3.117.574 1.195.879 2.402.879 3.621h-2.321c0-.984-.281-1.969-.832-2.941-.55-.973-1.347-1.782-2.379-2.45a4.18 4.18 0 0 0-1.605-.714c-.68-.094-1.43-.117-2.262-.07a40.94 40.94 0 0 1-1.265.023l-.024 6.152h-2.32l.012-14.074c0-1.078.222-1.875.679-2.379.446-.516 1.196-.773 2.227-.773h1.769c.575-.012 1.067-.012 1.453-.012h.586c1.219.012 2.286.223 3.211.644a5.018 5.018 0 0 1 2.203 1.887c.528.844.797 1.887.797 3.14 0 .856-.14 1.595-.41 2.216a4.437 4.437 0 0 1-1.172 1.593 5.873 5.873 0 0 1-1.757 1.02Zm-2.813-1.735a7.979 7.979 0 0 0 1.957-.351 2.824 2.824 0 0 0 1.359-.926c.329-.433.504-1.031.504-1.816 0-.75-.14-1.348-.398-1.817a2.585 2.585 0 0 0-1.137-1.043c-.492-.246-1.078-.398-1.746-.48h-.691c-.41 0-.891 0-1.43-.012h-2.086a.895.895 0 0 0-.527.281.789.789 0 0 0-.211.551v2.766c0 .726-.012 1.37-.012 1.933s0 .868.012.915h4.406Zm15.141-8.812c1.254 0 2.39.27 3.41.809 1.019.527 1.828 1.218 2.426 2.05.597.844.902 1.735.914 2.696V29.5h-2.274V26.852c-.023-1.243-.351-2.18-1.008-2.79-.644-.609-1.429-1.007-2.355-1.195a12.142 12.142 0 0 0-2.613-.27 64.136 64.136 0 0 0-2.145 0h-.82v1.301c0 .727 0 1.512-.012 2.368V29.5h-2.332V18.004c0-.996.328-1.934.984-2.8.645-.88 1.5-1.595 2.532-2.134 1.043-.539 2.133-.82 3.293-.82Zm4.464 9.621c0-.914 0-1.734-.011-2.426a34.6 34.6 0 0 0-.035-1.277c-.153-1.043-.645-1.898-1.477-2.566-.844-.668-1.828-1.008-2.941-1.008-1.172 0-2.192.363-3.024 1.113-.844.738-1.324 1.664-1.429 2.777-.012.082-.012.68-.012 1.805h3.773c1.196 0 2.215.105 3.059.34a4.278 4.278 0 0 1 2.097 1.242Zm18.856 5.203v2.39a7.658 7.658 0 0 1-.738 0h-.457c-1.535-.023-2.731-.374-3.586-1.077-.856-.692-1.5-1.594-1.946-2.707a30.338 30.338 0 0 1-1.125-3.598 34.553 34.553 0 0 0-.855-2.906 10.682 10.682 0 0 0-1.266-2.602 6.345 6.345 0 0 0-2.074-1.945v12.363l-.012 2.473h-2.39l.011-2.473.012-12.363-.012-2.39h1.243c1.007 0 1.875.152 2.601.468a5.766 5.766 0 0 1 1.864 1.313 8.24 8.24 0 0 1 1.324 1.898c.363.715.679 1.477.949 2.273.269.809.516 1.63.75 2.45a29.825 29.825 0 0 0 1.289 3.785c.48 1.148 1.16 2.039 2.027 2.648l-.011-12.363v-2.473h2.39v2.473l.012 12.363Zm12.961-12.469c.211.188.48.457.773.797.305.34.61.762.903 1.266.293.504.539 1.102.738 1.793.199.691.305 1.488.305 2.39 0 .669-.106 1.337-.305 2.005a10.985 10.985 0 0 1-.727 1.863 12.787 12.787 0 0 1-.89 1.488c-.305.422-.563.738-.774.938a8.928 8.928 0 0 1-2.648 1.734 8.143 8.143 0 0 1-3.199.668h-5.016v-13.98c0-.141.012-.329.023-.551.024-.211.083-.457.176-.727.094-.258.246-.527.457-.797a2.786 2.786 0 0 1 1.196-.808c.48-.176.996-.282 1.547-.317a19.03 19.03 0 0 1 1.617-.07 8.46 8.46 0 0 1 3.175.61 8.61 8.61 0 0 1 2.649 1.698Zm-5.824 12.61a5.94 5.94 0 0 0 3.129-.867 6.71 6.71 0 0 0 2.25-2.332 6.216 6.216 0 0 0 .843-3.164c0-1.137-.281-2.18-.832-3.118a6.324 6.324 0 0 0-2.215-2.238c-.925-.55-1.957-.844-3.105-.867v-.012l-1.934-.012c-.48-.023-.75.188-.808.622-.012.093-.012.738-.024 1.933-.011 1.184-.011 2.555-.011 4.102-.012 1.558-.012 2.93-.012 4.136v1.805l2.719.012ZM190.403 11.134c.276-.46.496-.824.711-1.19 1.341-2.282 2.848-4.426 4.983-6.057 1.559-1.192 3.259-1.976 5.257-2.094 1.013-.06 1.79.28 2.558.903 1.89 1.538 2.731 3.582 3.016 5.917.274 2.243.045 4.455-.508 6.633a23.746 23.746 0 0 1-3.836 8.189c-6.081 8.362-13.955 14.299-23.738 17.715-2.607.91-5.209 1.87-7.874 2.539-1.358.341-2.895.373-4.361.232-.278-.027-.521-.16-.592-.458-.088-.373.139-.585.441-.727.897-.423 1.866-.617 2.826-.797 1.899-.355 3.401-1.381 4.554-2.83 3.435-4.32 5.106-9.225 4.763-14.798-.214-3.471-.637-6.93-.645-10.415-.005-2.233.036-4.46.462-6.66.282-1.454.74-2.85 1.438-4.157.533-.999 1.227-1.856 2.228-2.436 1.649-.956 3.372-.847 4.864.335 1.349 1.068 2.119 2.498 2.568 4.129.419 1.518.494 3.079.588 4.638.025.42-.065.875.297 1.39Zm-14.844 29.053c.37.253.598.024.823-.049A39.839 39.839 0 0 0 188.2 34.03c4.7-3.53 8.396-7.967 11.681-12.78 2.361-3.457 3.593-7.339 4.2-11.452.23-1.556-.472-2.687-1.548-3.632-.756-.663-1.682-.776-2.64-.417-.89.333-1.651.872-2.367 1.484a19.331 19.331 0 0 0-4.253 5.12c-.643 1.117-1.339 2.186-2.442 2.955-.887.619-1.305.538-1.571-.537a8.539 8.539 0 0 1-.251-2.118c.011-2.014-.191-4.01-.676-5.968-.344-1.392-.791-2.75-1.81-3.824-.74-.78-1.498-.852-2.393-.281-.546.35-.907.85-1.194 1.412-.41.801-.644 1.66-.819 2.537-.44 2.2-.521 4.426-.452 6.657.107 3.476.291 6.952.041 10.427-.315 4.395-1.13 8.661-3.27 12.586-.789 1.446-1.71 2.795-2.877 3.988Zm27.742-22.254c-.073-.173-.141-.199-.191-.108-.751 1.36-1.385 2.787-2.305 4.05-.917 1.26-1.81 2.536-2.765 3.765-.955 1.229-1.964 2.416-2.965 3.607-.964 1.146-2.092 2.141-3.06 3.277 5.139-3.814 9.086-8.55 11.286-14.59Zm-5.679-12.377c2.091-1.28 4.13-1.715 6.188.141-.085-2.113-1.913-3.245-3.575-2.365a7.746 7.746 0 0 0-2.613 2.224Zm-17.34 20.415c.647-4.467.455-8.94.121-13.413-.282 1.348-.359 11.884-.121 13.413Zm-.956-15.534c.237-.989.469-1.98.712-2.967a20.05 20.05 0 0 1 .888-2.787c.367-.897.947-1.69 1.269-2.599-2.314 2.3-2.78 5.267-2.869 8.354Zm26.422.423c.214-2.234.176-2.501-.431-3.287-.095 1.08.336 2.07.431 3.287Zm-11.96-2.63c-.153.124-.549.168-.368.546l.368-.546Zm-.99 1.313c-.382.355-.588.607-.577 1.086.341-.261.498-.525.577-1.086Z"/></svg><svg viewBox="0 0 827 1048" id="hero-bg" xmlns="http://www.w3.org/2000/svg"><g filter="url(#ba)"><ellipse cx="477.5" cy="482" rx="277.5" ry="366"/></g><defs><filter id="ba" x="0" y="-84" width="955" height="1132" filterUnits="userSpaceOnUse" color-interpolation-filters="sRGB"><feFlood flood-opacity="0" result="BackgroundImageFix"/><feBlend in="SourceGraphic" in2="BackgroundImageFix" result="shape"/><feGaussianBlur stdDeviation="100" result="effect1_foregroundBlur_521_2626"/></filter></defs></svg><svg viewBox="0 0 30 30" id="icon-arrow" xmlns="http://www.w3.org/2000/svg"><path d="M27.729 2.275 2.273 27.731m0 0V3.69m0 24.041h24.041"/></svg><svg viewBox="0 0 18 14" id="icon-arrow-right" xmlns="http://www.w3.org/2000/svg"><path d="M.75 6.75h16m0 0-6 6m6-6-6-6"/></svg><svg viewBox="0 0 46 37" id="icon-crown" xmlns="http://www.w3.org/2000/svg"><path d="M11.618.88c-1.643.529-2.928 1.11-4.512 2.273-.205.196-.406.396-.604.6.023.053.058.119.109.211.095.172.26.377.466.58a23.622 23.622 0 0 0-.89 1.559 4.883 4.883 0 0 1-.9-.958c-.718.895-1.36 1.85-1.916 2.854.037.153.146.32.354.544.25.268.638.544 1.09.78-.19.573-.352 1.144-.486 1.713-.698-.316-1.336-.728-1.837-1.25a19.837 19.837 0 0 0-1.257 4.092c.125.229.348.437.686.66.475.313 1.158.57 1.901.717-.004.604.023 1.202.076 1.793-1.07-.157-2.1-.492-2.941-1.046l-.015-.008a20.09 20.09 0 0 0 .103 4.303c.216.326.579.559 1.119.744.694.24 1.638.314 2.598.217.188.574.401 1.137.639 1.688-1.31.196-2.647.152-3.806-.246l-.093-.036c.37 1.442.9 2.838 1.579 4.163.333.263.782.396 1.38.437.872.06 1.982-.162 3.04-.595.348.492.715.969 1.102 1.43-1.366.63-2.846 1-4.224.914a20.374 20.374 0 0 0 3.266 3.727c.4.135.872.137 1.442.026.9-.176 1.955-.694 2.909-1.406h.003c.482.372.98.724 1.49 1.054-1.122.93-2.402 1.66-3.705 1.99a20.065 20.065 0 0 0 3.5 1.892c.464.04.965-.09 1.533-.366.72-.35 1.48-.961 2.16-1.714a17.899 17.899 0 0 0 4.927 1.21l.167-1.746a15.842 15.842 0 0 1-3.99-.932c.645-1.041 1.088-2.172 1.213-3.134.11-.855.008-1.515-.355-2.01-.757-.148-1.49-.37-2.191-.656a5.093 5.093 0 0 1-.396 1.79c-.351.853-.892 1.668-1.55 2.41-.503-.31-.993-.642-1.467-.995.62-.674 1.117-1.404 1.397-2.083.357-.867.391-1.555.059-2.139a13.103 13.103 0 0 1-2.037-1.614 5.05 5.05 0 0 1-.659 1.134c-.513.671-1.178 1.266-1.928 1.772-.386-.443-.754-.9-1.101-1.377.67-.44 1.246-.947 1.638-1.459.472-.618.677-1.163.606-1.696a15.18 15.18 0 0 1-1.266-1.97 4.688 4.688 0 0 1-.717.684c-.634.485-1.388.858-2.195 1.127a18.239 18.239 0 0 1-.656-1.634c.696-.226 1.325-.533 1.784-.885.534-.409.825-.801.894-1.242-.288-.76-.52-1.541-.695-2.335-.175.1-.357.189-.544.264-.699.276-1.477.415-2.277.445a16.594 16.594 0 0 1-.096-1.755c.652-.025 1.262-.135 1.728-.32.432-.17.712-.356.876-.585a18.001 18.001 0 0 1-.076-2.795c-.061.01-.121.017-.182.023a5.98 5.98 0 0 1-1.913-.126c.129-.56.288-1.126.478-1.693.456.087.894.114 1.245.076.245-.027.425-.07.562-.132a17.72 17.72 0 0 1 .56-2.44 4.87 4.87 0 0 1-1.148-.363c.271-.524.563-1.038.876-1.538.226.09.442.156.626.184.104.016.19.025.261.026.183-.434.377-.86.59-1.271.552-1.106 1.163-2.273 1.593-3.557Zm22.91 0c.43 1.282 1.04 2.45 1.594 3.556.214.416.41.84.591 1.271.07-.001.156-.01.258-.026a2.99 2.99 0 0 0 .63-.185c.312.501.605 1.014.876 1.538a4.89 4.89 0 0 1-1.151.364c.24.786.429 1.603.56 2.44.137.062.319.105.565.132.35.039.788.011 1.245-.076.186.557.344 1.123.475 1.696-.641.14-1.29.191-1.91.123a3.822 3.822 0 0 1-.185-.023 17.99 17.99 0 0 1-.073 2.795c.164.23.445.415.876.586.465.184 1.074.294 1.725.32a16.596 16.596 0 0 1-.096 1.754c-.799-.03-1.576-.17-2.274-.445a4.322 4.322 0 0 1-.545-.264 16.866 16.866 0 0 1-.694 2.332c.067.442.356.835.89 1.245.46.352 1.089.66 1.785.885a18.286 18.286 0 0 1-.656 1.635c-.806-.27-1.559-.644-2.192-1.128a4.686 4.686 0 0 1-.72-.683 15.192 15.192 0 0 1-1.266 1.969c-.071.533.134 1.078.607 1.696.39.512.966 1.02 1.637 1.46-.346.476-.715.933-1.101 1.376-.75-.506-1.415-1.1-1.928-1.772a5.03 5.03 0 0 1-.656-1.131 13.074 13.074 0 0 1-2.037 1.611c-.332.584-.298 1.272.06 2.139.279.68.776 1.41 1.397 2.083-.475.354-.966.686-1.471.996-.657-.743-1.196-1.558-1.547-2.411a5.099 5.099 0 0 1-.396-1.79c-.708.29-1.443.51-2.194.656-.363.495-.465 1.155-.354 2.01.124.962.57 2.093 1.215 3.134-1.31.485-2.652.806-3.99.932l.164 1.746a17.904 17.904 0 0 0 4.931-1.21c.68.753 1.44 1.364 2.16 1.714.567.276 1.069.406 1.532.366a20.064 20.064 0 0 0 3.5-1.892c-1.303-.33-2.584-1.06-3.706-1.987.51-.328 1.007-.684 1.492-1.057.954.712 2.011 1.23 2.912 1.406.567.11 1.04.11 1.438-.024a20.379 20.379 0 0 0 3.27-3.729c-1.379.087-2.862-.285-4.228-.914.386-.46.756-.937 1.104-1.43 1.06.432 2.17.655 3.042.595.597-.041 1.046-.174 1.38-.437a20.127 20.127 0 0 0 1.578-4.163c-.031.012-.062.025-.093.035-1.159.399-2.496.443-3.806.246.239-.552.452-1.115.639-1.687.96.096 1.902.022 2.596-.217.54-.186.904-.418 1.122-.744.187-1.427.22-2.87.1-4.304l-.012.01c-.841.553-1.873.888-2.942 1.045.053-.59.08-1.19.076-1.793.743-.148 1.426-.405 1.901-.718.337-.222.558-.431.683-.659a19.864 19.864 0 0 0-1.257-4.093c-.501.522-1.137.934-1.834 1.251a19.973 19.973 0 0 0-.486-1.714c.45-.235.838-.512 1.087-.779.207-.223.319-.389.357-.542a20.302 20.302 0 0 0-1.916-2.856 4.89 4.89 0 0 1-.9.958c-.276-.53-.573-1.05-.89-1.559.207-.203.37-.409.466-.58.05-.091.086-.155.108-.208a20.9 20.9 0 0 0-.606-.604C37.456 1.99 36.17 1.41 34.528.88ZM13.326 6.591l2.258 12.161h15.384l2.148-11.672-5.432 5.953-4.216-6.298-4.218 6.298-5.924-6.442Zm2.584 13.913.334 1.802h14.071l.331-1.802H15.91Z"/></svg><svg viewBox="0 0 24 24" id="icon-facebook" xmlns="http://www.w3.org/2000/svg"><g clip-path="url(#fa)"><path d="M24 12c0-6.627-5.373-12-12-12S0 5.373 0 12c0 5.99 4.388 10.954 10.125 11.854V15.47H7.078V12h3.047V9.356c0-3.007 1.792-4.668 4.533-4.668 1.313 0 2.686.234 2.686.234v2.953H15.83c-1.491 0-1.956.925-1.956 1.874V12h3.328l-.532 3.469h-2.796v8.385C19.612 22.954 24 17.99 24 12Z"/><path d="M16.671 15.469 17.203 12h-3.328V9.75c0-.95.465-1.875 1.956-1.875h1.513V4.922s-1.374-.234-2.687-.234c-2.74 0-4.532 1.66-4.532 4.668V12H7.078v3.469h3.047v8.385a12.1 12.1 0 0 0 3.75 0V15.47h2.796Z"/></g><defs><clipPath id="fa"><path d="M0 0h24v24H0z"/></clipPath></defs></svg><svg viewBox="0 0 18 16" id="icon-heart" xmlns="http://www.w3.org/2000/svg"><path d="M5.458.916C3.272.916 1.5 2.799 1.5 5.122c0 4.648 7.5 9.96 7.5 9.96s7.5-5.312 7.5-9.96c0-2.878-1.773-4.206-3.958-4.206-1.55 0-2.892.947-3.542 2.325C8.35 1.863 7.008.916 5.458.916Z"/></svg><svg viewBox="0 0 24 24" id="icon-instagram" xmlns="http://www.w3.org/2000/svg"><g clip-path="url(#ha)"><path d="M18.375 0H5.625A5.625 5.625 0 0 0 0 5.625v12.75A5.625 5.625 0 0 0 5.625 24h12.75A5.625 5.625 0 0 0 24 18.375V5.625A5.625 5.625 0 0 0 18.375 0Z"/><path d="M18.375 0H5.625A5.625 5.625 0 0 0 0 5.625v12.75A5.625 5.625 0 0 0 5.625 24h12.75A5.625 5.625 0 0 0 24 18.375V5.625A5.625 5.625 0 0 0 18.375 0Z"/><path d="M12 2.625c-2.545 0-2.865.011-3.865.057-.998.045-1.68.203-2.275.435A4.59 4.59 0 0 0 4.2 4.198a4.602 4.602 0 0 0-1.083 1.66c-.232.597-.39 1.279-.436 2.276-.044 1-.056 1.32-.056 3.866 0 2.546.011 2.865.057 3.865.046.998.204 1.68.435 2.275.24.617.56 1.14 1.081 1.66a4.59 4.59 0 0 0 1.66 1.083c.597.232 1.279.39 2.276.436 1 .045 1.32.056 3.866.056 2.546 0 2.865-.011 3.865-.056.998-.046 1.68-.204 2.276-.436a4.584 4.584 0 0 0 1.66-1.082 4.6 4.6 0 0 0 1.082-1.66c.23-.597.389-1.278.435-2.276.045-1 .057-1.319.057-3.865 0-2.546-.012-2.866-.057-3.866-.047-.998-.205-1.679-.435-2.275A4.601 4.601 0 0 0 19.8 4.2a4.58 4.58 0 0 0-1.66-1.082c-.598-.232-1.28-.39-2.278-.435-1-.046-1.318-.057-3.865-.057H12Zm-.84 1.69H12c2.504 0 2.8.008 3.79.053.913.042 1.41.195 1.74.323.437.17.75.373 1.077.702.328.328.531.64.702 1.078.128.33.281.826.323 1.74.044.988.054 1.285.054 3.787s-.01 2.799-.054 3.787c-.042.914-.195 1.41-.323 1.74-.17.438-.374.75-.702 1.077-.328.328-.64.532-1.077.701-.33.13-.827.282-1.74.324-.99.045-1.286.054-3.79.054-2.502 0-2.8-.01-3.787-.054-.914-.043-1.41-.195-1.741-.324a2.905 2.905 0 0 1-1.078-.7 2.907 2.907 0 0 1-.702-1.078c-.128-.33-.281-.827-.323-1.74-.045-.989-.054-1.286-.054-3.79 0-2.503.01-2.798.054-3.787.042-.914.195-1.41.323-1.74.17-.438.373-.75.702-1.078.328-.328.64-.532 1.078-.702.33-.129.827-.281 1.74-.323.865-.04 1.2-.05 2.948-.053v.002Zm5.845 1.556a1.125 1.125 0 1 0 0 2.25 1.125 1.125 0 0 0 0-2.25Zm-5.004 1.315a4.815 4.815 0 1 0 0 9.629 4.815 4.815 0 0 0 0-9.63Zm0 1.689a3.125 3.125 0 1 1 0 6.25 3.125 3.125 0 0 1 0-6.25Z"/></g><defs><clipPath id="ha"><path d="M0 0h24v24H0z"/></clipPath></defs></svg><svg viewBox="0 0 16 16" id="icon-rating" xmlns="http://www.w3.org/2000/svg"><path d="M.023 5.796a.468.468 0 0 1 .377-.32l4.946-.72L7.557.26a.467.467 0 0 1 .838 0l2.212 4.495 4.946.72a.468.468 0 0 1 .259.8l-3.579 3.499.845 4.94a.47.47 0 0 1-.678.494l-4.424-2.332-4.423 2.332a.466.466 0 0 1-.678-.494l.845-4.94L.141 6.276a.47.47 0 0 1-.118-.48Z"/></svg><svg viewBox="0 0 22 22" id="icon-star" xmlns="http://www.w3.org/2000/svg"><path d="m11 22 1.437-7.052 5.634 4.479-3.432-6.326 7.194-.19-6.695-2.64L20.526 5.5l-6.825 2.281L14.762.663 11 6.798 7.238.663l1.061 7.118L1.474 5.5l5.388 4.77-6.695 2.64 7.194.19-3.432 6.327 5.634-4.479L11 22Z"/></svg><svg viewBox="0 0 24 24" id="icon-telegram" xmlns="http://www.w3.org/2000/svg"><g clip-path="url(#ka)"><path d="M12 0a11.999 11.999 0 0 0-8.484 20.485 11.999 11.999 0 1 0 16.968-16.97A11.999 11.999 0 0 0 12 0Z"/><path d="M5.432 11.874a585.198 585.198 0 0 1 6.997-3.014c3.334-1.386 4.026-1.627 4.478-1.635.1-.002.32.023.465.14.12.098.154.23.17.324.015.094.036.307.02.473-.18 1.897-.963 6.502-1.36 8.627-.167.9-.499 1.2-.82 1.23-.697.065-1.226-.46-1.9-.902-1.056-.693-1.653-1.124-2.678-1.8-1.185-.78-.417-1.21.258-1.91.177-.184 3.248-2.977 3.306-3.23.008-.032.015-.15-.056-.212-.07-.063-.173-.041-.248-.024-.107.024-1.792 1.139-5.062 3.345-.478.329-.911.49-1.301.48-.428-.008-1.253-.241-1.866-.44-.75-.245-1.348-.374-1.296-.789.027-.216.325-.437.893-.663Z"/></g><defs><clipPath id="ka"><path d="M0 0h24v24H0z"/></clipPath></defs></svg><svg viewBox="0 0 208 44" id="logo" xmlns="http://www.w3.org/2000/svg"><path d="M13.547 12.25V21.848c-.012 1.172-.024 1.816-.035 1.933-.164 1.078-.551 2.051-1.184 2.907a6.732 6.732 0 0 1-2.39 2.039c-.961.515-2.028.761-3.176.761-1.254 0-2.39-.293-3.41-.867a6.65 6.65 0 0 1-2.426-2.344c-.598-.972-.903-2.062-.926-3.28V12.25h2.344v1.676c-.012 1.125-.012 2.402-.024 3.855v3.88c0 1.136.012 1.78.012 1.921.152 1.031.645 1.887 1.488 2.566.844.668 1.817 1.008 2.942 1.008 1.172 0 2.18-.375 3.023-1.113.844-.738 1.313-1.664 1.43-2.777V12.25h2.332ZM33.41 22.797c1.102.89 1.946 1.933 2.531 3.117.575 1.195.88 2.402.88 3.621H34.5c0-.984-.281-1.969-.832-2.941-.55-.973-1.348-1.782-2.379-2.45a4.185 4.185 0 0 0-1.605-.714 11.74 11.74 0 0 0-2.262-.07c-.387.011-.809.023-1.266.023l-.023 6.152h-2.32l.011-14.074c0-1.078.223-1.875.68-2.379.445-.516 1.195-.773 2.226-.773h1.77c.574-.012 1.066-.012 1.453-.012h.586c1.219.012 2.285.223 3.211.644a5.02 5.02 0 0 1 2.203 1.887c.527.844.797 1.887.797 3.14 0 .856-.14 1.595-.41 2.216a4.44 4.44 0 0 1-1.172 1.593 5.872 5.872 0 0 1-1.758 1.02Zm-2.812-1.735a7.985 7.985 0 0 0 1.957-.351 2.829 2.829 0 0 0 1.36-.926c.327-.433.503-1.031.503-1.816 0-.75-.14-1.348-.398-1.817a2.58 2.58 0 0 0-1.137-1.043c-.492-.246-1.078-.398-1.746-.48h-.692c-.41 0-.89 0-1.43-.012H26.93a.898.898 0 0 0-.528.281.79.79 0 0 0-.21.551v2.766c0 .726-.012 1.37-.012 1.933s0 .868.011.915h4.407Zm18.937 6.165c.024 0 .047 0 .059-.012V29.5H38.93V15.684c0-.938.34-1.746 1.02-2.414.69-.668 1.5-1.008 2.448-1.008h6.833v2.308c-.036 0-.399 0-1.079.012h-4.711c-.691 0-1.043.012-1.043.012-.304 0-.574.105-.796.316-.211.211-.329.469-.329.774v3.996h7.371v2.25l-7.37.011-.047 5.227 8.308.059Zm9-14.977c1.254 0 2.39.27 3.41.809 1.02.527 1.828 1.218 2.426 2.05.598.844.902 1.735.914 2.696V29.5h-2.273V26.852c-.024-1.243-.352-2.18-1.008-2.79-.645-.609-1.43-1.007-2.356-1.195a12.144 12.144 0 0 0-2.613-.27 64.11 64.11 0 0 0-2.144 0h-.82v1.301c0 .727 0 1.512-.012 2.368V29.5h-2.332V18.004c0-.996.328-1.934.984-2.8.645-.88 1.5-1.595 2.531-2.134 1.043-.539 2.133-.82 3.293-.82ZM63 21.871c0-.914 0-1.734-.012-2.426a32.126 32.126 0 0 0-.035-1.277c-.152-1.043-.644-1.898-1.476-2.566-.844-.668-1.829-1.008-2.942-1.008-1.172 0-2.191.363-3.023 1.113-.844.738-1.325 1.664-1.43 2.777-.012.082-.012.68-.012 1.805h3.774c1.195 0 2.215.105 3.058.34A4.285 4.285 0 0 1 63 21.87Zm8.32 5.297h5.79v2.32h-5.79c-1.09 0-2.015-.304-2.777-.914-.75-.61-1.125-1.347-1.125-2.238l-.012-14.086h2.32l.012 14.086c0 .164.14.352.434.539.293.2.68.293 1.148.293Zm25.453-6.48c.973.21 1.77.668 2.403 1.37.62.692.984 1.454 1.078 2.25.058.528-.012 1.079-.199 1.688-.188.598-.516 1.16-.985 1.688-.468.527-1.148.96-2.027 1.3-.879.34-2.05.504-3.492.504l-6.153.012.012-10.969v-2.754c0-.949.328-1.746 1.008-2.414a3.381 3.381 0 0 1 2.45-1.008h2.66c.855 0 1.628.165 2.32.493.68.316 1.207.738 1.558 1.254a6.29 6.29 0 0 1 .832 1.687c.2.61.235 1.395.106 2.344-.13.96-.656 1.816-1.57 2.555Zm-2.472 6.527a9.858 9.858 0 0 0 1.922-.27c.55-.152.984-.433 1.3-.843.305-.399.458-.997.446-1.793-.024-.61-.305-1.102-.856-1.465-.55-.375-1.3-.575-2.261-.586-.176-.012-.528-.012-1.055-.012h-4.054l-.036 5.004h2.145c.562-.012 1.09-.012 1.558-.012.469-.011.774-.011.89-.023Zm-1.57-7.254c1.23-.023 2.132-.293 2.695-.797.574-.516.843-1.195.82-2.039-.023-.89-.375-1.523-1.043-1.898-.68-.375-1.629-.563-2.86-.551-.984.011-1.476.011-1.476.011-.305 0-.574.106-.797.317a1.02 1.02 0 0 0-.328.773v4.16s.2 0 .61.012h1.03c.294.012.528.012.716.012h.633Zm19.289 2.836c1.101.89 1.945 1.933 2.531 3.117.574 1.195.879 2.402.879 3.621h-2.321c0-.984-.281-1.969-.832-2.941-.55-.973-1.347-1.782-2.379-2.45a4.18 4.18 0 0 0-1.605-.714c-.68-.094-1.43-.117-2.262-.07a40.94 40.94 0 0 1-1.265.023l-.024 6.152h-2.32l.012-14.074c0-1.078.222-1.875.679-2.379.446-.516 1.196-.773 2.227-.773h1.769c.575-.012 1.067-.012 1.453-.012h.586c1.219.012 2.286.223 3.211.644a5.018 5.018 0 0 1 2.203 1.887c.528.844.797 1.887.797 3.14 0 .856-.14 1.595-.41 2.216a4.437 4.437 0 0 1-1.172 1.593 5.873 5.873 0 0 1-1.757 1.02Zm-2.813-1.735a7.979 7.979 0 0 0 1.957-.351 2.824 2.824 0 0 0 1.359-.926c.329-.433.504-1.031.504-1.816 0-.75-.14-1.348-.398-1.817a2.585 2.585 0 0 0-1.137-1.043c-.492-.246-1.078-.398-1.746-.48h-.691c-.41 0-.891 0-1.43-.012h-2.086a.895.895 0 0 0-.527.281.789.789 0 0 0-.211.551v2.766c0 .726-.012 1.37-.012 1.933s0 .868.012.915h4.406Zm15.141-8.812c1.254 0 2.39.27 3.41.809 1.019.527 1.828 1.218 2.426 2.05.597.844.902 1.735.914 2.696V29.5h-2.274V26.852c-.023-1.243-.351-2.18-1.008-2.79-.644-.609-1.429-1.007-2.355-1.195a12.142 12.142 0 0 0-2.613-.27 64.136 64.136 0 0 0-2.145 0h-.82v1.301c0 .727 0 1.512-.012 2.368V29.5h-2.332V18.004c0-.996.328-1.934.984-2.8.645-.88 1.5-1.595 2.532-2.134 1.043-.539 2.133-.82 3.293-.82Zm4.464 9.621c0-.914 0-1.734-.011-2.426a34.6 34.6 0 0 0-.035-1.277c-.153-1.043-.645-1.898-1.477-2.566-.844-.668-1.828-1.008-2.941-1.008-1.172 0-2.192.363-3.024 1.113-.844.738-1.324 1.664-1.429 2.777-.012.082-.012.68-.012 1.805h3.773c1.196 0 2.215.105 3.059.34a4.278 4.278 0 0 1 2.097 1.242Zm18.856 5.203v2.39a7.658 7.658 0 0 1-.738 0h-.457c-1.535-.023-2.731-.374-3.586-1.077-.856-.692-1.5-1.594-1.946-2.707a30.338 30.338 0 0 1-1.125-3.598 34.553 34.553 0 0 0-.855-2.906 10.682 10.682 0 0 0-1.266-2.602 6.345 6.345 0 0 0-2.074-1.945v12.363l-.012 2.473h-2.39l.011-2.473.012-12.363-.012-2.39h1.243c1.007 0 1.875.152 2.601.468a5.766 5.766 0 0 1 1.864 1.313 8.24 8.24 0 0 1 1.324 1.898c.363.715.679 1.477.949 2.273.269.809.516 1.63.75 2.45a29.825 29.825 0 0 0 1.289 3.785c.48 1.148 1.16 2.039 2.027 2.648l-.011-12.363v-2.473h2.39v2.473l.012 12.363Zm12.961-12.469c.211.188.48.457.773.797.305.34.61.762.903 1.266.293.504.539 1.102.738 1.793.199.691.305 1.488.305 2.39 0 .669-.106 1.337-.305 2.005a10.985 10.985 0 0 1-.727 1.863 12.787 12.787 0 0 1-.89 1.488c-.305.422-.563.738-.774.938a8.928 8.928 0 0 1-2.648 1.734 8.143 8.143 0 0 1-3.199.668h-5.016v-13.98c0-.141.012-.329.023-.551.024-.211.083-.457.176-.727.094-.258.246-.527.457-.797a2.786 2.786 0 0 1 1.196-.808c.48-.176.996-.282 1.547-.317a19.03 19.03 0 0 1 1.617-.07 8.46 8.46 0 0 1 3.175.61 8.61 8.61 0 0 1 2.649 1.698Zm-5.824 12.61a5.94 5.94 0 0 0 3.129-.867 6.71 6.71 0 0 0 2.25-2.332 6.216 6.216 0 0 0 .843-3.164c0-1.137-.281-2.18-.832-3.118a6.324 6.324 0 0 0-2.215-2.238c-.925-.55-1.957-.844-3.105-.867v-.012l-1.934-.012c-.48-.023-.75.188-.808.622-.012.093-.012.738-.024 1.933-.011 1.184-.011 2.555-.011 4.102-.012 1.558-.012 2.93-.012 4.136v1.805l2.719.012ZM190.403 11.134c.276-.46.496-.824.711-1.19 1.341-2.282 2.848-4.426 4.983-6.057 1.559-1.192 3.259-1.976 5.257-2.094 1.013-.06 1.79.28 2.558.903 1.89 1.538 2.731 3.582 3.016 5.917.274 2.243.045 4.455-.508 6.633a23.746 23.746 0 0 1-3.836 8.189c-6.081 8.362-13.955 14.299-23.738 17.715-2.607.91-5.209 1.87-7.874 2.539-1.358.341-2.895.373-4.361.232-.278-.027-.521-.16-.592-.458-.088-.373.139-.585.441-.727.897-.423 1.866-.617 2.826-.797 1.899-.355 3.401-1.381 4.554-2.83 3.435-4.32 5.106-9.225 4.763-14.798-.214-3.471-.637-6.93-.645-10.415-.005-2.233.036-4.46.462-6.66.282-1.454.74-2.85 1.438-4.157.533-.999 1.227-1.856 2.228-2.436 1.649-.956 3.372-.847 4.864.335 1.349 1.068 2.119 2.498 2.568 4.129.419 1.518.494 3.079.588 4.638.025.42-.065.875.297 1.39Zm-14.844 29.053c.37.253.598.024.823-.049A39.839 39.839 0 0 0 188.2 34.03c4.7-3.53 8.396-7.967 11.681-12.78 2.361-3.457 3.593-7.339 4.2-11.452.23-1.556-.472-2.687-1.548-3.632-.756-.663-1.682-.776-2.64-.417-.89.333-1.651.872-2.367 1.484a19.331 19.331 0 0 0-4.253 5.12c-.643 1.117-1.339 2.186-2.442 2.955-.887.619-1.305.538-1.571-.537a8.539 8.539 0 0 1-.251-2.118c.011-2.014-.191-4.01-.676-5.968-.344-1.392-.791-2.75-1.81-3.824-.74-.78-1.498-.852-2.393-.281-.546.35-.907.85-1.194 1.412-.41.801-.644 1.66-.819 2.537-.44 2.2-.521 4.426-.452 6.657.107 3.476.291 6.952.041 10.427-.315 4.395-1.13 8.661-3.27 12.586-.789 1.446-1.71 2.795-2.877 3.988Zm27.742-22.254c-.073-.173-.141-.199-.191-.108-.751 1.36-1.385 2.787-2.305 4.05-.917 1.26-1.81 2.536-2.765 3.765-.955 1.229-1.964 2.416-2.965 3.607-.964 1.146-2.092 2.141-3.06 3.277 5.139-3.814 9.086-8.55 11.286-14.59Zm-5.679-12.377c2.091-1.28 4.13-1.715 6.188.141-.085-2.113-1.913-3.245-3.575-2.365a7.746 7.746 0 0 0-2.613 2.224Zm-17.34 20.415c.647-4.467.455-8.94.121-13.413-.282 1.348-.359 11.884-.121 13.413Zm-.956-15.534c.237-.989.469-1.98.712-2.967a20.05 20.05 0 0 1 .888-2.787c.367-.897.947-1.69 1.269-2.599-2.314 2.3-2.78 5.267-2.869 8.354Zm26.422.423c.214-2.234.176-2.501-.431-3.287-.095 1.08.336 2.07.431 3.287Zm-11.96-2.63c-.153.124-.549.168-.368.546l.368-.546Zm-.99 1.313c-.382.355-.588.607-.577 1.086.341-.261.498-.525.577-1.086Z"/></svg></svg>