<svg width="82" height="60" fill="none" xmlns="http://www.w3.org/2000/svg"><path d="M36.766 3.865V7.31c-11.63 6.925-18.81 15.044-21.535 24.361 2.95-1.95 5.634-3.036 8.05-3.247 4.026-.351 7.427.788 10.2 3.42 2.771 2.63 4.16 6.023 4.16 10.18 0 4.595-1.824 8.614-5.468 12.048-3.646 3.432-8.132 5.386-13.452 5.849-5.323.465-9.774-1.132-13.354-4.785C1.788 51.48 0 46.699 0 40.796c0-8.318 3.6-16.084 10.803-23.303 7.201-7.218 15.857-11.76 25.963-13.628zM81.13 0v3.445c-11.632 6.925-18.81 15.044-21.538 24.36 2.95-1.95 5.657-3.037 8.118-3.25 3.983-.347 7.357.794 10.134 3.426C80.617 30.61 82 34.003 82 38.16c0 4.594-1.81 8.612-5.434 12.044-3.623 3.43-8.097 5.383-13.419 5.846-5.365.468-9.828-1.127-13.383-4.784-3.557-3.657-5.336-8.44-5.336-14.342 0-8.32 3.592-16.085 10.772-23.302C62.376 6.41 71.02 1.867 81.13 0z" fill="#BF0909"/></svg>