<svg width="208" height="44" viewBox="0 0 208 44" fill="none" xmlns="http://www.w3.org/2000/svg">
<path d="M13.5469 12.25C13.5469 12.25 13.5469 12.8359 13.5469 14.0078C13.5469 15.1797 13.5469 16.4805 13.5469 17.8984C13.5469 19.3281 13.5469 20.6406 13.5469 21.8477C13.5352 23.0195 13.5234 23.6641 13.5117 23.7812C13.3477 24.8594 12.9609 25.832 12.3281 26.6875C11.707 27.543 10.9102 28.2227 9.9375 28.7266C8.97656 29.2422 7.91016 29.4883 6.76172 29.4883C5.50781 29.4883 4.37109 29.1953 3.35156 28.6211C2.33203 28.0352 1.52344 27.2617 0.925781 26.2773C0.328125 25.3047 0.0234375 24.2148 0 22.9961C0 22.6094 0 21.8711 0 20.7461C0 19.6328 0 18.4258 0 17.125C0 15.8125 0 14.6758 0 13.7031C0 12.7305 0 12.25 0 12.25H2.34375C2.34375 12.25 2.34375 12.8125 2.34375 13.9258C2.33203 15.0508 2.33203 16.3281 2.32031 17.7812C2.32031 19.2344 2.32031 20.5234 2.32031 21.6602C2.32031 22.7969 2.33203 23.4414 2.33203 23.582C2.48438 24.6133 2.97656 25.4688 3.82031 26.1484C4.66406 26.8164 5.63672 27.1562 6.76172 27.1562C7.93359 27.1562 8.94141 26.7812 9.78516 26.043C10.6289 25.3047 11.0977 24.3789 11.2148 23.2656C11.2148 23.1953 11.2148 22.6094 11.2148 21.5195C11.2148 20.4297 11.2148 19.1641 11.2148 17.7344C11.2148 16.3047 11.2148 15.0273 11.2148 13.9141C11.2148 12.8008 11.2148 12.25 11.2148 12.25H13.5469ZM33.4102 22.7969C34.5117 23.6875 35.3555 24.7305 35.9414 25.9141C36.5156 27.1094 36.8203 28.3164 36.8203 29.5352H34.5C34.5 28.5508 34.2188 27.5664 33.668 26.5938C33.1172 25.6211 32.3203 24.8125 31.2891 24.1445C30.7852 23.7812 30.2461 23.5469 29.6836 23.4297C29.0039 23.3359 28.2539 23.3125 27.4219 23.3594C27.0352 23.3711 26.6133 23.3828 26.1562 23.3828L26.1328 29.5352H23.8125L23.8242 15.4609C23.8242 14.3828 24.0469 13.5859 24.5039 13.082C24.9492 12.5664 25.6992 12.3086 26.7305 12.3086C27.3281 12.3086 27.9141 12.3086 28.5 12.3086C29.0742 12.2969 29.5664 12.2969 29.9531 12.2969C30.3516 12.2969 30.5391 12.2969 30.5391 12.2969C31.7578 12.3086 32.8242 12.5195 33.75 12.9414C34.6875 13.3633 35.4141 13.9961 35.9531 14.8281C36.4805 15.6719 36.75 16.7148 36.75 17.9688C36.75 18.8242 36.6094 19.5625 36.3398 20.1836C36.0586 20.8164 35.6719 21.3438 35.168 21.7773C34.6758 22.1992 34.0898 22.5391 33.4102 22.7969ZM30.5977 21.0625C31.3242 21.0156 31.9805 20.8984 32.5547 20.7109C33.1289 20.5234 33.5742 20.207 33.9141 19.7852C34.2422 19.3516 34.418 18.7539 34.418 17.9688C34.418 17.2188 34.2773 16.6211 34.0195 16.1523C33.75 15.6953 33.375 15.3438 32.8828 15.1094C32.3906 14.8633 31.8047 14.7109 31.1367 14.6289C31.0898 14.6289 30.8672 14.6289 30.4453 14.6289C30.0352 14.6289 29.5547 14.6289 29.0156 14.6172C28.4766 14.6172 27.9961 14.6172 27.5859 14.6172C27.1758 14.6172 26.9648 14.6172 26.9297 14.6172C26.7188 14.6523 26.543 14.7461 26.4023 14.8984C26.2617 15.0508 26.1914 15.2383 26.1914 15.4492C26.1914 15.4492 26.1914 15.7305 26.1914 16.293C26.1914 16.8555 26.1914 17.4883 26.1914 18.2148C26.1914 18.9414 26.1797 19.5859 26.1797 20.1484C26.1797 20.7109 26.1797 21.0156 26.1914 21.0625C27.0703 21.0625 27.9023 21.0625 28.6992 21.0625C29.25 21.0625 29.707 21.0625 30.0586 21.0625C30.3984 21.0625 30.5859 21.0625 30.5977 21.0625ZM49.5352 27.2266C49.5586 27.2266 49.582 27.2266 49.5938 27.2148V29.5H38.9297V15.6836C38.9297 14.7461 39.2695 13.9375 39.9492 13.2695C40.6406 12.6016 41.4492 12.2617 42.3984 12.2617C42.3984 12.2617 42.75 12.2617 43.4297 12.2617C44.1211 12.2617 44.9062 12.2617 45.7969 12.2617C46.6758 12.2617 47.4609 12.2617 48.1406 12.2617C48.8203 12.2617 49.1836 12.2617 49.2305 12.2617V14.5703C49.1953 14.5703 48.832 14.5703 48.1523 14.582C47.4844 14.582 46.6992 14.582 45.8086 14.582C44.918 14.582 44.1328 14.582 43.4414 14.582C42.75 14.582 42.3984 14.5938 42.3984 14.5938C42.0938 14.5938 41.8242 14.6992 41.6016 14.9102C41.3906 15.1211 41.2734 15.3789 41.2734 15.6836V19.6797H48.6445V21.9297L41.2734 21.9414L41.2266 27.168L49.5352 27.2266ZM58.5352 12.25C59.7891 12.25 60.9258 12.5195 61.9453 13.0586C62.9648 13.5859 63.7734 14.2773 64.3711 15.1094C64.9688 15.9531 65.2734 16.8438 65.2852 17.8047C65.2852 18.1797 65.2852 18.9766 65.2852 20.1953C65.2852 21.4023 65.2852 22.7266 65.2852 24.1445C65.2852 25.5742 65.2852 26.8281 65.2852 27.8945C65.2852 28.9609 65.2852 29.5 65.2852 29.5H63.0117C63.0117 29.4883 63.0117 29.3594 63.0117 29.0898C63.0117 28.832 63.0117 28.5273 63.0117 28.1875C63.0117 27.8477 63.0117 27.543 63.0117 27.2852C63.0117 27.0273 63.0117 26.8867 63.0117 26.8516C62.9883 25.6094 62.6602 24.6719 62.0039 24.0625C61.3594 23.4531 60.5742 23.0547 59.6484 22.8672C58.7344 22.6797 57.8672 22.5859 57.0352 22.5977C56.1562 22.5859 55.4414 22.5859 54.8906 22.5977C54.3398 22.5977 54.0703 22.5977 54.0703 22.5977C54.0703 22.75 54.0703 23.1836 54.0703 23.8984C54.0703 24.625 54.0703 25.4102 54.0586 26.2656C54.0586 27.1211 54.0586 27.8711 54.0586 28.5273C54.0586 29.1719 54.0586 29.5 54.0586 29.5H51.7266C51.7266 29.5 51.7266 28.9258 51.7266 27.7891C51.7266 26.6641 51.7266 25.3516 51.7266 23.8516C51.7266 22.3633 51.7266 21.0391 51.7266 19.9023C51.7266 18.7656 51.7266 18.1328 51.7266 18.0039C51.7266 17.0078 52.0547 16.0703 52.7109 15.2031C53.3555 14.3242 54.2109 13.6094 55.2422 13.0703C56.2852 12.5312 57.375 12.25 58.5352 12.25ZM63 21.8711C63 20.957 63 20.1367 62.9883 19.4453C62.9766 18.7422 62.9648 18.3203 62.9531 18.168C62.8008 17.125 62.3086 16.2695 61.4766 15.6016C60.6328 14.9336 59.6484 14.5938 58.5352 14.5938C57.3633 14.5938 56.3438 14.957 55.5117 15.707C54.668 16.4453 54.1875 17.3711 54.082 18.4844C54.0703 18.5664 54.0703 19.1641 54.0703 20.2891H57.8438C59.0391 20.2891 60.0586 20.3945 60.9023 20.6289C61.7461 20.8516 62.4492 21.2734 63 21.8711ZM71.3203 27.168H77.1094V29.4883H71.3203C70.2305 29.4883 69.3047 29.1836 68.543 28.5742C67.793 27.9648 67.418 27.2266 67.418 26.3359L67.4062 12.25H69.7266L69.7383 26.3359C69.7383 26.5 69.8789 26.6875 70.1719 26.875C70.4648 27.0742 70.8516 27.168 71.3203 27.168ZM96.7734 20.6875C97.7461 20.8984 98.543 21.3555 99.1758 22.0586C99.7969 22.75 100.16 23.5117 100.254 24.3086C100.312 24.8359 100.242 25.3867 100.055 25.9961C99.8672 26.5938 99.5391 27.1562 99.0703 27.6836C98.6016 28.2109 97.9219 28.6445 97.043 28.9844C96.1641 29.3242 94.9922 29.4883 93.5508 29.4883L87.3984 29.5L87.4102 18.5312V15.7773C87.4102 14.8281 87.7383 14.0312 88.418 13.3633C89.0977 12.6953 89.918 12.3555 90.8672 12.3555H93.5273C94.3828 12.3555 95.1562 12.5195 95.8477 12.8477C96.5273 13.1641 97.0547 13.5859 97.4062 14.1016C97.7695 14.6172 98.0391 15.1797 98.2383 15.7891C98.4375 16.3984 98.4727 17.1836 98.3438 18.1328C98.2148 19.0938 97.6875 19.9492 96.7734 20.6875ZM94.3008 27.2148C95.0273 27.1797 95.6602 27.0859 96.2227 26.9453C96.7734 26.793 97.207 26.5117 97.5234 26.1016C97.8281 25.7031 97.9805 25.1055 97.9688 24.3086C97.9453 23.6992 97.6641 23.207 97.1133 22.8438C96.5625 22.4688 95.8125 22.2695 94.8516 22.2578C94.6758 22.2461 94.3242 22.2461 93.7969 22.2461C93.2578 22.2461 92.6836 22.2461 92.0625 22.2461C91.4414 22.2461 90.9023 22.2461 90.4336 22.2461C89.9648 22.2461 89.7422 22.2461 89.7422 22.2461L89.707 27.25C89.707 27.25 89.918 27.25 90.3516 27.25C90.7734 27.25 91.2773 27.25 91.8516 27.25C92.4141 27.2383 92.9414 27.2383 93.4102 27.2383C93.8789 27.2266 94.1836 27.2266 94.3008 27.2148ZM92.7305 19.9609C93.9609 19.9375 94.8633 19.668 95.4258 19.1641C96 18.6484 96.2695 17.9688 96.2461 17.125C96.2227 16.2344 95.8711 15.6016 95.2031 15.2266C94.5234 14.8516 93.5742 14.6641 92.3438 14.6758C91.3594 14.6875 90.8672 14.6875 90.8672 14.6875C90.5625 14.6875 90.293 14.793 90.0703 15.0039C89.8477 15.2148 89.7422 15.4727 89.7422 15.7773V19.9375C89.7422 19.9375 89.9414 19.9375 90.3516 19.9492C90.75 19.9492 91.1016 19.9492 91.3828 19.9492C91.6758 19.9609 91.9102 19.9609 92.0977 19.9609C92.2969 19.9609 92.5078 19.9609 92.7305 19.9609ZM112.02 22.7969C113.121 23.6875 113.965 24.7305 114.551 25.9141C115.125 27.1094 115.43 28.3164 115.43 29.5352H113.109C113.109 28.5508 112.828 27.5664 112.277 26.5938C111.727 25.6211 110.93 24.8125 109.898 24.1445C109.395 23.7812 108.855 23.5469 108.293 23.4297C107.613 23.3359 106.863 23.3125 106.031 23.3594C105.645 23.3711 105.223 23.3828 104.766 23.3828L104.742 29.5352H102.422L102.434 15.4609C102.434 14.3828 102.656 13.5859 103.113 13.082C103.559 12.5664 104.309 12.3086 105.34 12.3086C105.938 12.3086 106.523 12.3086 107.109 12.3086C107.684 12.2969 108.176 12.2969 108.562 12.2969C108.961 12.2969 109.148 12.2969 109.148 12.2969C110.367 12.3086 111.434 12.5195 112.359 12.9414C113.297 13.3633 114.023 13.9961 114.562 14.8281C115.09 15.6719 115.359 16.7148 115.359 17.9688C115.359 18.8242 115.219 19.5625 114.949 20.1836C114.668 20.8164 114.281 21.3438 113.777 21.7773C113.285 22.1992 112.699 22.5391 112.02 22.7969ZM109.207 21.0625C109.934 21.0156 110.59 20.8984 111.164 20.7109C111.738 20.5234 112.184 20.207 112.523 19.7852C112.852 19.3516 113.027 18.7539 113.027 17.9688C113.027 17.2188 112.887 16.6211 112.629 16.1523C112.359 15.6953 111.984 15.3438 111.492 15.1094C111 14.8633 110.414 14.7109 109.746 14.6289C109.699 14.6289 109.477 14.6289 109.055 14.6289C108.645 14.6289 108.164 14.6289 107.625 14.6172C107.086 14.6172 106.605 14.6172 106.195 14.6172C105.785 14.6172 105.574 14.6172 105.539 14.6172C105.328 14.6523 105.152 14.7461 105.012 14.8984C104.871 15.0508 104.801 15.2383 104.801 15.4492C104.801 15.4492 104.801 15.7305 104.801 16.293C104.801 16.8555 104.801 17.4883 104.801 18.2148C104.801 18.9414 104.789 19.5859 104.789 20.1484C104.789 20.7109 104.789 21.0156 104.801 21.0625C105.68 21.0625 106.512 21.0625 107.309 21.0625C107.859 21.0625 108.316 21.0625 108.668 21.0625C109.008 21.0625 109.195 21.0625 109.207 21.0625ZM124.348 12.25C125.602 12.25 126.738 12.5195 127.758 13.0586C128.777 13.5859 129.586 14.2773 130.184 15.1094C130.781 15.9531 131.086 16.8438 131.098 17.8047C131.098 18.1797 131.098 18.9766 131.098 20.1953C131.098 21.4023 131.098 22.7266 131.098 24.1445C131.098 25.5742 131.098 26.8281 131.098 27.8945C131.098 28.9609 131.098 29.5 131.098 29.5H128.824C128.824 29.4883 128.824 29.3594 128.824 29.0898C128.824 28.832 128.824 28.5273 128.824 28.1875C128.824 27.8477 128.824 27.543 128.824 27.2852C128.824 27.0273 128.824 26.8867 128.824 26.8516C128.801 25.6094 128.473 24.6719 127.816 24.0625C127.172 23.4531 126.387 23.0547 125.461 22.8672C124.547 22.6797 123.68 22.5859 122.848 22.5977C121.969 22.5859 121.254 22.5859 120.703 22.5977C120.152 22.5977 119.883 22.5977 119.883 22.5977C119.883 22.75 119.883 23.1836 119.883 23.8984C119.883 24.625 119.883 25.4102 119.871 26.2656C119.871 27.1211 119.871 27.8711 119.871 28.5273C119.871 29.1719 119.871 29.5 119.871 29.5H117.539C117.539 29.5 117.539 28.9258 117.539 27.7891C117.539 26.6641 117.539 25.3516 117.539 23.8516C117.539 22.3633 117.539 21.0391 117.539 19.9023C117.539 18.7656 117.539 18.1328 117.539 18.0039C117.539 17.0078 117.867 16.0703 118.523 15.2031C119.168 14.3242 120.023 13.6094 121.055 13.0703C122.098 12.5312 123.188 12.25 124.348 12.25ZM128.812 21.8711C128.812 20.957 128.812 20.1367 128.801 19.4453C128.789 18.7422 128.777 18.3203 128.766 18.168C128.613 17.125 128.121 16.2695 127.289 15.6016C126.445 14.9336 125.461 14.5938 124.348 14.5938C123.176 14.5938 122.156 14.957 121.324 15.707C120.48 16.4453 120 17.3711 119.895 18.4844C119.883 18.5664 119.883 19.1641 119.883 20.2891H123.656C124.852 20.2891 125.871 20.3945 126.715 20.6289C127.559 20.8516 128.262 21.2734 128.812 21.8711ZM147.668 27.0742V29.4648C147.387 29.4766 147.141 29.4766 146.93 29.4648C146.777 29.4648 146.625 29.4648 146.473 29.4648C144.938 29.4414 143.742 29.0898 142.887 28.3867C142.031 27.6953 141.387 26.793 140.941 25.6797C140.508 24.5547 140.133 23.3594 139.816 22.082C139.57 21.0977 139.289 20.125 138.961 19.1758C138.645 18.2266 138.223 17.3594 137.695 16.5742C137.168 15.7891 136.477 15.1328 135.621 14.6289V26.9922L135.609 29.4648H133.219L133.23 26.9922L133.242 14.6289L133.23 12.2383C133.23 12.2383 133.277 12.2383 133.371 12.2383C133.477 12.2383 133.594 12.2383 133.734 12.2383C133.875 12.2383 134.004 12.2383 134.145 12.2383C134.273 12.2383 134.391 12.2383 134.473 12.2383C135.48 12.2383 136.348 12.3906 137.074 12.707C137.801 13.0352 138.422 13.4688 138.938 14.0195C139.453 14.5703 139.898 15.2031 140.262 15.918C140.625 16.6328 140.941 17.3945 141.211 18.1914C141.48 19 141.727 19.8203 141.961 20.6406C142.336 22.0117 142.758 23.2656 143.25 24.4258C143.73 25.5742 144.41 26.4648 145.277 27.0742L145.266 14.7109V12.2383H147.656V14.7109L147.668 27.0742ZM160.629 14.6055C160.84 14.793 161.109 15.0625 161.402 15.4023C161.707 15.7422 162.012 16.1641 162.305 16.668C162.598 17.1719 162.844 17.7695 163.043 18.4609C163.242 19.1523 163.348 19.9492 163.348 20.8516C163.348 21.5195 163.242 22.1875 163.043 22.8555C162.844 23.5234 162.609 24.1445 162.316 24.7188C162.023 25.293 161.719 25.7852 161.426 26.207C161.121 26.6289 160.863 26.9453 160.652 27.1445C159.879 27.8711 159 28.457 158.004 28.8789C157.008 29.3125 155.941 29.5352 154.805 29.5469C154.348 29.5469 153.938 29.5469 153.562 29.5469C153.188 29.5469 152.848 29.5469 152.543 29.5469C152.238 29.5469 151.957 29.5469 151.723 29.5469C151.477 29.5469 151.266 29.5469 151.078 29.5469C150.891 29.5469 150.738 29.5469 150.598 29.5469C150.457 29.5469 150.34 29.5469 150.246 29.5469C150.152 29.5469 150.07 29.5469 150.012 29.5469C149.953 29.5469 149.906 29.5469 149.871 29.5469C149.848 29.5469 149.824 29.5469 149.812 29.5469C149.801 29.5469 149.789 29.5469 149.789 29.5469V15.5664C149.789 15.4258 149.801 15.2383 149.812 15.0156C149.836 14.8047 149.895 14.5586 149.988 14.2891C150.082 14.0312 150.234 13.7617 150.445 13.4922C150.773 13.1172 151.172 12.8477 151.641 12.6836C152.121 12.5078 152.637 12.4023 153.188 12.3672C153.738 12.3203 154.277 12.2969 154.805 12.2969C155.93 12.2969 156.984 12.5078 157.98 12.9062C158.977 13.3164 159.855 13.8789 160.629 14.6055ZM154.805 27.2148C155.941 27.2148 156.984 26.9219 157.934 26.3477C158.871 25.7617 159.621 24.9766 160.184 24.0156C160.746 23.043 161.027 21.9883 161.027 20.8516C161.027 19.7148 160.746 18.6719 160.195 17.7344C159.645 16.7969 158.906 16.0586 157.98 15.4961C157.055 14.9453 156.023 14.6523 154.875 14.6289V14.6172L152.941 14.6055C152.461 14.582 152.191 14.793 152.133 15.2266C152.121 15.3203 152.121 15.9648 152.109 17.1602C152.098 18.3438 152.098 19.7148 152.098 21.2617C152.086 22.8203 152.086 24.1914 152.086 25.3984C152.086 26.6055 152.086 27.2031 152.086 27.2031L154.805 27.2148Z" fill="white"/>
<path d="M190.403 11.1343C190.679 10.6735 190.899 10.3103 191.114 9.94381C192.455 7.6617 193.962 5.51822 196.097 3.88671C197.656 2.69488 199.356 1.91115 201.354 1.79311C202.367 1.73318 203.144 2.0722 203.912 2.69626C205.802 4.23352 206.643 6.27771 206.928 8.61288C207.202 10.8556 206.973 13.0682 206.42 15.2455C205.665 18.2162 204.391 20.9494 202.584 23.4347C196.503 31.7967 188.629 37.7339 178.846 41.1498C176.239 42.0602 173.637 43.0192 170.972 43.689C169.614 44.0303 168.077 44.0623 166.611 43.9214C166.333 43.8944 166.09 43.7613 166.019 43.4634C165.931 43.0896 166.158 42.8783 166.46 42.7355C167.357 42.3128 168.326 42.1188 169.286 41.9394C171.185 41.5844 172.687 40.5577 173.84 39.1083C177.275 34.7884 178.946 29.8843 178.603 24.3113C178.389 20.8396 177.966 17.3812 177.958 13.8959C177.953 11.6632 177.994 9.43687 178.42 7.23575C178.702 5.78176 179.16 4.38679 179.858 3.07874C180.391 2.08044 181.085 1.22304 182.086 0.64291C183.735 -0.312846 185.458 -0.20441 186.95 0.977818C188.299 2.04612 189.069 3.47632 189.518 5.10692C189.937 6.62542 190.012 8.18556 190.106 9.74478C190.131 10.1657 190.041 10.6196 190.403 11.1343ZM175.559 40.1867C175.929 40.4401 176.157 40.2109 176.382 40.1382C180.661 38.7611 184.598 36.7361 188.2 34.0303C192.9 30.4992 196.596 26.0631 199.881 21.2509C202.242 17.793 203.474 13.9114 204.081 9.79831C204.311 8.24183 203.609 7.11085 202.533 6.16561C201.777 5.50267 200.851 5.38967 199.893 5.74882C199.003 6.08235 198.242 6.6213 197.526 7.23255C195.812 8.6934 194.397 10.3972 193.273 12.3522C192.63 13.4699 191.934 14.5387 190.831 15.3078C189.944 15.9268 189.526 15.8458 189.26 14.7715C189.088 14.0798 189.005 13.3752 189.009 12.6528C189.02 10.6392 188.818 8.64262 188.333 6.68536C187.989 5.29267 187.542 3.9343 186.523 2.8605C185.783 2.08043 185.025 2.00861 184.13 2.58005C183.584 2.92913 183.223 3.42966 182.936 3.99195C182.526 4.79306 182.292 5.65182 182.117 6.52934C181.677 8.72909 181.596 10.9554 181.665 13.1862C181.772 16.662 181.956 20.1378 181.706 23.6135C181.391 28.008 180.576 32.2744 178.436 36.199C177.647 37.6447 176.726 38.9939 175.559 40.1867ZM203.301 17.9334C203.228 17.7596 203.16 17.7344 203.11 17.825C202.359 19.1852 201.725 20.6118 200.805 21.8754C199.888 23.1341 198.995 24.411 198.04 25.6399C197.085 26.8688 196.076 28.056 195.075 29.2474C194.111 30.393 192.983 31.3881 192.015 32.5237C197.154 28.7103 201.101 23.9736 203.301 17.9334ZM197.622 5.55575C199.713 4.27561 201.752 3.84142 203.81 5.69711C203.725 3.58429 201.897 2.4524 200.235 3.33221C199.212 3.87391 198.332 4.60685 197.622 5.55575ZM180.282 25.9711C180.929 21.5044 180.737 17.0317 180.403 12.5576C180.121 13.9055 180.044 24.4421 180.282 25.9711ZM179.326 10.4375C179.563 9.44831 179.795 8.45778 180.038 7.47046C180.272 6.52157 180.556 5.58914 180.926 4.6828C181.293 3.7856 181.873 2.99227 182.195 2.0841C179.881 4.38358 179.415 7.35059 179.326 10.4375ZM205.748 10.8598C205.962 8.6257 205.924 8.35896 205.317 7.57294C205.222 8.65269 205.653 9.64322 205.748 10.8598ZM193.788 8.23039C193.635 8.35392 193.239 8.39785 193.42 8.77576C193.555 8.57628 193.671 8.40334 193.788 8.23039ZM192.798 9.54256C192.416 9.89805 192.21 10.1501 192.221 10.6287C192.562 10.3679 192.719 10.1035 192.798 9.54256Z" fill="white"/>
</svg>
