<svg width="165" height="116" viewBox="0 0 165 116" fill="none" xmlns="http://www.w3.org/2000/svg">
<path d="M74.2066 7.4707V14.1308C50.7353 27.5198 36.2436 43.2166 30.7419 61.2303C36.6964 57.4587 42.1131 55.3604 46.9886 54.9533C55.1154 54.2738 61.9792 56.4769 67.5763 61.5655C73.17 66.6511 75.9721 73.2094 75.9721 81.2464C75.9721 90.1305 72.2925 97.9011 64.937 104.54C57.5779 111.176 48.5241 114.954 37.7861 115.849C27.0412 116.747 18.0581 113.661 10.8334 106.597C3.60879 99.5294 0 90.2862 0 78.8727C0 62.7898 7.26711 47.7754 21.8049 33.8177C36.3391 19.8629 53.8099 11.0806 74.2066 7.4707Z" fill="#FFD3C3"/>
<path d="M163.245 0V6.66007C139.767 20.0491 125.278 35.7459 119.773 53.7596C125.728 49.988 131.19 47.8867 136.158 47.4736C144.196 46.8031 151.007 49.0092 156.611 54.0978C162.208 59.1834 165 65.7417 165 73.7787C165 82.6628 161.345 90.4304 154.032 97.0665C146.719 103.7 137.69 107.474 126.948 108.369C116.118 109.273 107.111 106.19 99.9355 99.1199C92.7569 92.0498 89.1658 82.8035 89.1658 71.3901C89.1658 55.3041 96.4152 40.2927 110.907 26.338C125.392 12.3922 142.838 3.60991 163.245 0Z" fill="#FFD3C3"/>
</svg>
