<svg width="46" height="37" viewBox="0 0 46 37" fill="none" xmlns="http://www.w3.org/2000/svg">
<path d="M11.6179 0.879187C9.97523 1.40887 8.68991 1.9905 7.10619 3.15262C6.90085 3.34865 6.69956 3.54888 6.50244 3.75319C6.52494 3.80625 6.55963 3.87178 6.61091 3.96412C6.70616 4.13587 6.87032 4.34128 7.07685 4.54444C6.76034 5.05247 6.46325 5.57234 6.18623 6.10294C5.84273 5.81794 5.53448 5.50078 5.28679 5.14481C4.56856 6.04017 3.92757 6.99484 3.37073 7.99856C3.40776 8.15194 3.51669 8.31919 3.7251 8.54325C3.9741 8.81072 4.36307 9.087 4.81504 9.32269C4.62529 9.89616 4.46254 10.4668 4.32885 11.0364C3.63135 10.7196 2.99338 10.3082 2.49191 9.78553C1.92655 11.1004 1.50516 12.4727 1.2351 13.8783C1.36026 14.1065 1.58329 14.3154 1.9206 14.5375C2.3961 14.8507 3.07935 15.1072 3.82204 15.2554C3.81782 15.8588 3.84548 16.4574 3.89816 17.0482C2.82876 16.8914 1.79769 16.5562 0.956757 16.0024C0.95207 15.9992 0.94682 15.9967 0.942132 15.9936C0.822051 17.4277 0.856405 18.8705 1.0446 20.2972C1.26116 20.6235 1.6236 20.8557 2.16369 21.0414C2.85801 21.2801 3.80169 21.3549 4.76244 21.2582C4.94994 21.8321 5.16323 22.3954 5.40088 22.9457C4.09119 23.1424 2.75366 23.0977 1.59529 22.6996C1.56369 22.6887 1.53294 22.676 1.50154 22.6644C1.87234 24.1063 2.40195 25.5025 3.08066 26.8275C3.41376 27.0904 3.86348 27.2227 4.46066 27.264C5.33254 27.3244 6.44291 27.1018 7.50173 26.6693C7.84889 27.161 8.21639 27.638 8.60329 28.099C7.23735 28.7286 5.75704 29.0998 4.37863 29.0131C5.3118 30.3836 6.40879 31.635 7.64526 32.7397C8.04463 32.8752 8.51713 32.877 9.08657 32.7659C9.98657 32.5903 11.0417 32.0718 11.9956 31.3597C11.9964 31.3601 11.9981 31.3592 11.9986 31.3597C12.4806 31.7321 12.9781 32.084 13.4898 32.4143C12.3671 33.3434 11.0875 34.0733 9.78388 34.4037C10.8852 35.149 12.058 35.7829 13.2848 36.2962C13.7476 36.3358 14.2495 36.2062 14.817 35.93C15.5363 35.5798 16.2964 34.9688 16.9761 34.2162C18.5732 34.8521 20.2322 35.2681 21.9039 35.4261L22.0708 33.68C20.7331 33.5534 19.391 33.2328 18.0806 32.7483C18.7259 31.7069 19.169 30.5758 19.2937 29.6136C19.4041 28.7591 19.3015 28.0988 18.9391 27.6038C18.1816 27.4556 17.4494 27.2344 16.7477 26.9475C16.7316 27.5541 16.5878 28.165 16.3521 28.7376C16.001 29.591 15.4596 30.4061 14.8024 31.1488C14.2986 30.8388 13.8088 30.5064 13.3346 30.1527C13.9552 29.4794 14.4524 28.7493 14.732 28.0696C15.0888 27.2028 15.1232 26.5154 14.7906 25.9312C14.0642 25.4664 13.3841 24.9246 12.7545 24.3168C12.5883 24.7199 12.362 25.1015 12.0953 25.4506C11.5819 26.1223 10.9167 26.7172 10.1675 27.2229C9.78126 26.7804 9.41263 26.3227 9.06594 25.8459C9.73644 25.4059 10.3124 24.8991 10.7038 24.387C11.1761 23.7688 11.3806 23.2236 11.3101 22.6907C10.8382 22.068 10.4151 21.4098 10.0445 20.7219C9.83002 20.9742 9.58939 21.2031 9.32666 21.4047C8.6931 21.8899 7.93935 22.263 7.13235 22.5325C6.88907 21.9991 6.66763 21.4546 6.4761 20.8978C7.17238 20.6723 7.80079 20.365 8.26016 20.0131C8.79416 19.6042 9.08535 19.212 9.15379 18.7709C8.86639 18.0103 8.63435 17.2299 8.45948 16.4358C8.2844 16.5366 8.10231 16.6248 7.9146 16.6995C7.21616 16.9758 6.43804 17.1152 5.63835 17.1448C5.57509 16.5619 5.54276 15.9761 5.54151 15.3898C6.19373 15.3652 6.80376 15.2551 7.27026 15.0706C7.70151 14.9 7.98229 14.7143 8.14616 14.4847C8.04833 13.5564 8.02284 12.6219 8.06994 11.6897C8.00901 11.6994 7.94901 11.7066 7.88826 11.7131C7.26726 11.7811 6.61738 11.7272 5.97519 11.5872C6.10363 11.0266 6.26301 10.4613 6.45276 9.89381C6.90932 9.98128 7.34694 10.0085 7.69776 9.97013C7.94282 9.94331 8.12263 9.89925 8.26026 9.83831C8.38904 9.01263 8.57607 8.1971 8.81994 7.39781C8.42788 7.32881 8.04332 7.20169 7.67151 7.03453C7.94314 6.51054 8.23537 5.99748 8.54751 5.49656C8.77382 5.58684 8.98963 5.65266 9.17441 5.68125C9.27819 5.69719 9.36407 5.70609 9.43523 5.7075C9.61766 5.2725 9.81229 4.84781 10.0242 4.43597C10.5771 3.32953 11.1881 2.16253 11.6179 0.879375V0.879187ZM34.5281 0.879187C34.9577 2.16225 35.5687 3.32934 36.1218 4.43588C36.3355 4.8518 36.5329 5.27594 36.7134 5.70731C36.7839 5.70581 36.869 5.69672 36.9712 5.68106C37.1568 5.65237 37.3739 5.58731 37.6012 5.49638C37.9133 5.99732 38.2056 6.51041 38.4772 7.03444C38.1044 7.20188 37.7182 7.32881 37.3259 7.39781C37.5662 8.18437 37.7547 9.00094 37.8853 9.83812C38.0235 9.89981 38.2045 9.94312 38.4509 9.97013C38.8018 10.0086 39.2394 9.98137 39.6959 9.89391C39.8816 10.4513 40.04 11.0175 40.1706 11.5903C39.5296 11.7297 38.8804 11.7812 38.2604 11.7134C38.1988 11.7071 38.1373 11.6993 38.076 11.69C38.1241 12.6221 38.0996 13.5565 38.0027 14.4848C38.1668 14.7145 38.4476 14.9002 38.8788 15.0708C39.3445 15.255 39.9534 15.3652 40.6044 15.3901C40.6032 15.9764 40.571 16.5622 40.5078 17.1451C39.7091 17.1151 38.9321 16.9756 38.2344 16.6998C38.0468 16.6247 37.8647 16.5366 37.6894 16.436C37.5144 17.229 37.2824 18.0084 36.9951 18.768C37.0621 19.2105 37.3509 19.6035 37.8857 20.0132C38.3455 20.365 38.9737 20.6723 39.6701 20.8978C39.4784 21.4547 39.2571 21.9991 39.0138 22.5326C38.2078 22.2631 37.4553 21.8893 36.8224 21.4048C36.5587 21.2034 36.3171 20.9745 36.1017 20.722C35.7257 21.4178 35.3029 22.0762 34.836 22.6908C34.7648 23.2235 34.9701 23.7691 35.4426 24.3872C35.8334 24.8988 36.4094 25.4062 37.0801 25.8462C36.7335 26.3229 36.3648 26.7805 35.9786 27.2231C35.2295 26.7173 34.5643 26.1225 34.0509 25.4507C33.7848 25.1024 33.5602 24.7215 33.3946 24.3197C32.7656 24.927 32.0844 25.4668 31.3584 25.9311C31.0259 26.5154 31.0603 27.2028 31.4171 28.0697C31.6969 28.7494 32.1941 29.4794 32.8147 30.1528C32.3395 30.5066 31.8488 30.8389 31.3439 31.1488C30.6874 30.4061 30.1483 29.591 29.7971 28.7376C29.5615 28.1651 29.4177 27.5542 29.4014 26.9477C28.6931 27.2373 27.9582 27.4571 27.2072 27.6039C26.8441 28.0989 26.7422 28.7593 26.8529 29.6137C26.9773 30.5759 27.4228 31.7071 28.0685 32.7485C26.7584 33.233 25.416 33.5535 24.0783 33.6801L24.2424 35.4262C25.9149 35.268 27.5748 34.8528 29.1731 34.2162C29.8528 34.9688 30.6129 35.5798 31.3321 35.93C31.8999 36.2062 32.4016 36.3359 32.8645 36.2962C34.0913 35.7829 35.264 35.1489 36.3653 34.4036C35.0625 34.0736 33.7814 33.3449 32.6594 32.4171C33.1695 32.0886 33.6662 31.7333 34.1505 31.3596C35.1049 32.0724 36.162 32.5901 37.0626 32.7658C37.6304 32.8766 38.1023 32.8769 38.5011 32.7424C39.7387 31.637 40.8367 30.3846 41.7706 29.013C40.392 29.0997 38.9088 28.7285 37.543 28.0989C37.9292 27.6383 38.2992 27.1624 38.6474 26.6692C39.7063 27.1014 40.8165 27.3242 41.6886 27.2638C42.2856 27.2226 42.7354 27.0902 43.0683 26.8273C43.747 25.5023 44.2766 24.1061 44.6474 22.6642C44.616 22.6758 44.5853 22.6886 44.5537 22.6994C43.3954 23.0976 42.0578 23.1422 40.748 22.9455C40.9867 22.3931 41.1998 21.83 41.3867 21.258C42.3463 21.3543 43.2889 21.2796 43.9825 21.0412C44.5229 20.8555 44.8872 20.6235 45.1045 20.2971C45.2917 18.8702 45.3251 17.4274 45.2042 15.9934C45.2002 15.996 45.1965 15.9995 45.1925 16.0022C44.3516 16.5561 43.3203 16.8912 42.251 17.0481C42.3038 16.4573 42.3313 15.8587 42.3271 15.2551C43.0696 15.1068 43.7531 14.8504 44.2284 14.5372C44.5652 14.3154 44.7858 14.1056 44.9112 13.878C44.6409 12.4725 44.2194 11.1003 43.6542 9.78534C43.1529 10.3075 42.5167 10.7191 41.8202 11.0363C41.6837 10.4581 41.5214 9.8862 41.3339 9.32241C41.7843 9.08681 42.1722 8.81016 42.4208 8.54306C42.6282 8.32031 42.7397 8.154 42.7783 8.00119C42.2215 6.99649 41.5804 6.04087 40.862 5.14462C40.6143 5.5005 40.3061 5.81775 39.9628 6.10275C39.6857 5.57213 39.3886 5.0522 39.0721 4.54406C39.2791 4.341 39.4427 4.13531 39.5379 3.96375C39.5883 3.87281 39.6241 3.8085 39.6463 3.75581C39.4483 3.55052 39.2461 3.34932 39.0399 3.15234C37.4562 1.99022 36.1708 1.40859 34.5282 0.878906L34.5281 0.879187ZM13.3257 6.59212L15.5845 18.7532H30.9685L33.1159 7.08131L27.6843 13.0344L23.4685 6.73575L19.2497 13.0345L13.3258 6.59222L13.3257 6.59212ZM15.9097 20.5052L16.2437 22.3068H30.315L30.6463 20.5051H15.9099L15.9097 20.5052Z" fill="#BF0909"/>
</svg>
