<svg width="16" height="16" viewBox="0 0 16 16" fill="none" xmlns="http://www.w3.org/2000/svg">
<path d="M0.022954 5.79566C0.0779161 5.62595 0.224138 5.50226 0.400178 5.47663L5.34559 4.75586L7.55731 0.26128C7.63601 0.101281 7.7985 0 7.97638 0C8.15429 0 8.31674 0.101281 8.39548 0.26128L10.6073 4.75586L15.5526 5.47663C15.7286 5.50226 15.8749 5.62595 15.9299 5.79563C15.9849 5.96535 15.939 6.15163 15.8116 6.27616L12.2332 9.77471L13.0778 14.7148C13.1079 14.8907 13.0358 15.0683 12.8919 15.1733C12.8105 15.2326 12.7141 15.2628 12.6172 15.2628C12.5428 15.2628 12.4681 15.245 12.3997 15.2089L7.97641 12.8765L3.55326 15.2089C3.39575 15.2919 3.20498 15.2781 3.06106 15.1732C2.91714 15.0683 2.84501 14.8906 2.87508 14.7147L3.71998 9.77471L0.141197 6.27613C0.0138254 6.15163 -0.0320702 5.96535 0.022954 5.79566Z" fill="#FFB800"/>
</svg>
