<svg width="82" height="60" viewBox="0 0 82 60" fill="none" xmlns="http://www.w3.org/2000/svg">
<path d="M36.7656 3.86523V7.30999C25.1368 14.2351 17.9568 22.3539 15.2311 31.671C18.1812 29.7202 20.8649 28.6349 23.2804 28.4244C27.3069 28.0729 30.7075 29.2124 33.4806 31.8444C36.252 34.4748 37.6403 37.8669 37.6403 42.0238C37.6403 46.6189 35.8173 50.638 32.173 54.0719C28.5269 57.5043 24.0412 59.4581 18.7211 59.921C13.3975 60.3855 8.94687 58.7893 5.36742 55.1355C1.78797 51.4802 0 46.6994 0 40.7961C0 32.4776 3.60048 24.7118 10.8032 17.4925C18.0042 10.2748 26.66 5.73237 36.7656 3.86523Z" fill="#BF0909"/>
<path d="M81.1304 0V3.44475C69.4981 10.3699 62.32 18.4886 59.5924 27.8057C62.5426 25.855 65.2491 24.7682 67.7102 24.5545C71.6928 24.2077 75.0671 25.3487 77.8437 27.9807C80.6168 30.6111 81.9999 34.0032 81.9999 38.1601C81.9999 42.7552 80.1891 46.7728 76.5659 50.2051C72.9426 53.6359 68.4692 55.5882 63.1473 56.0511C57.7817 56.5187 53.3187 54.9241 49.7638 51.2672C46.2072 47.6103 44.428 42.8279 44.428 36.9246C44.428 28.6046 48.0197 20.8404 55.1996 13.6226C62.376 6.40956 71.0196 1.86713 81.1304 0Z" fill="#BF0909"/>
</svg>
